<svg id="visual" viewBox="0 0 900 390" width="900" height="390" xmlns="http://www.w3.org/2000/svg" xmlns:xlink="http://www.w3.org/1999/xlink" version="1.1"><rect x="0" y="0" width="900" height="390" fill="#212121"></rect><path d="M0 180L75 189L150 192L225 140L300 198L375 199L450 177L525 199L600 148L675 138L750 192L825 152L900 138L900 0L825 0L750 0L675 0L600 0L525 0L450 0L375 0L300 0L225 0L150 0L75 0L0 0Z" fill="#07561c"></path><path d="M0 120L75 142L150 182L225 178L300 131L375 124L450 180L525 136L600 134L675 146L750 165L825 145L900 175L900 0L825 0L750 0L675 0L600 0L525 0L450 0L375 0L300 0L225 0L150 0L75 0L0 0Z" fill="#08601f"></path><path d="M0 137L75 151L150 147L225 110L300 153L375 144L450 132L525 147L600 154L675 103L750 149L825 122L900 123L900 0L825 0L750 0L675 0L600 0L525 0L450 0L375 0L300 0L225 0L150 0L75 0L0 0Z" fill="#086b23"></path><path d="M0 131L75 135L150 81L225 81L300 119L375 105L450 96L525 133L600 108L675 120L750 81L825 124L900 93L900 0L825 0L750 0L675 0L600 0L525 0L450 0L375 0L300 0L225 0L150 0L75 0L0 0Z" fill="#097626"></path><path d="M0 90L75 105L150 76L225 68L300 100L375 93L450 82L525 72L600 72L675 74L750 96L825 78L900 110L900 0L825 0L750 0L675 0L600 0L525 0L450 0L375 0L300 0L225 0L150 0L75 0L0 0Z" fill="#0b802a"></path><path d="M0 81L75 77L150 84L225 87L300 50L375 86L450 60L525 51L600 63L675 57L750 66L825 64L900 49L900 0L825 0L750 0L675 0L600 0L525 0L450 0L375 0L300 0L225 0L150 0L75 0L0 0Z" fill="#0c8b2e"></path><path d="M0 59L75 28L150 62L225 51L300 57L375 59L450 35L525 45L600 30L675 36L750 61L825 61L900 35L900 0L825 0L750 0L675 0L600 0L525 0L450 0L375 0L300 0L225 0L150 0L75 0L0 0Z" fill="#0d9731"></path><path d="M0 40L75 28L150 33L225 22L300 23L375 35L450 26L525 40L600 21L675 20L750 12L825 28L900 16L900 0L825 0L750 0L675 0L600 0L525 0L450 0L375 0L300 0L225 0L150 0L75 0L0 0Z" fill="#0fa235"></path></svg>