<svg id="visual" viewBox="0 0 900 390" width="900" height="390" xmlns="http://www.w3.org/2000/svg" xmlns:xlink="http://www.w3.org/1999/xlink" version="1.1"><rect x="0" y="0" width="900" height="390" fill="#212121"></rect><path d="M0 245L75 190L150 235L225 238L300 194L375 231L450 224L525 231L600 228L675 198L750 216L825 243L900 228L900 391L825 391L750 391L675 391L600 391L525 391L450 391L375 391L300 391L225 391L150 391L75 391L0 391Z" fill="#07561c"></path><path d="M0 238L75 258L150 272L225 228L300 265L375 225L450 257L525 253L600 213L675 238L750 247L825 209L900 234L900 391L825 391L750 391L675 391L600 391L525 391L450 391L375 391L300 391L225 391L150 391L75 391L0 391Z" fill="#08601f"></path><path d="M0 247L75 267L150 260L225 288L300 275L375 235L450 250L525 276L600 253L675 241L750 284L825 265L900 273L900 391L825 391L750 391L675 391L600 391L525 391L450 391L375 391L300 391L225 391L150 391L75 391L0 391Z" fill="#086b23"></path><path d="M0 266L75 278L150 264L225 285L300 299L375 286L450 256L525 279L600 270L675 263L750 289L825 265L900 301L900 391L825 391L750 391L675 391L600 391L525 391L450 391L375 391L300 391L225 391L150 391L75 391L0 391Z" fill="#097626"></path><path d="M0 283L75 311L150 293L225 290L300 283L375 297L450 313L525 319L600 315L675 286L750 290L825 289L900 297L900 391L825 391L750 391L675 391L600 391L525 391L450 391L375 391L300 391L225 391L150 391L75 391L0 391Z" fill="#0b802a"></path><path d="M0 322L75 304L150 307L225 321L300 342L375 321L450 342L525 338L600 334L675 316L750 323L825 311L900 305L900 391L825 391L750 391L675 391L600 391L525 391L450 391L375 391L300 391L225 391L150 391L75 391L0 391Z" fill="#0c8b2e"></path><path d="M0 329L75 346L150 331L225 328L300 342L375 340L450 353L525 328L600 359L675 359L750 335L825 333L900 354L900 391L825 391L750 391L675 391L600 391L525 391L450 391L375 391L300 391L225 391L150 391L75 391L0 391Z" fill="#0d9731"></path><path d="M0 356L75 379L150 353L225 363L300 377L375 349L450 362L525 378L600 363L675 349L750 373L825 362L900 372L900 391L825 391L750 391L675 391L600 391L525 391L450 391L375 391L300 391L225 391L150 391L75 391L0 391Z" fill="#0fa235"></path></svg>